# xmcd
#
# Track frame offsets:
#	150
#	2692
#	16760
#	35455
#	51280
#	68975
#	85537
#	103270
#	120067
#	137732
#	155472
#	171280
#	190860
#	193427
#	209025
#	210805
#	226030
#	246780
#	262342
#	281030
#	296385
#	300477
#	333852
#
# Disc length: 4763 seconds
#
# Revision: 1
# Processed by: cddbd v1.5PL3 Copyright (c) Steve Scherf et al.
# Submitted via: EasyCDDAExtractor 6.5.2.1
#
DISCID=41129917
DTITLE=Glennis Grace - Secrets of my soul
DYEAR=2003
DGENRE=Blues
TTITLE0=01 - Intro - Once upon a time
TTITLE1=02 - Absolutely not
TTITLE2=03 - Last Goodbye
TTITLE3=04 - Ain't nothing gonna stop me now
TTITLE4=05 - A moment like this
TTITLE5=06 - Finish what you started
TTITLE6=07 - If you knew anything about love
TTITLE7=08 - Conflicted
TTITLE8=09 - Before your love
TTITLE9=10 - Say a little prayer
TTITLE10=11 - I can only be me
TTITLE11=12 - Somebody else's guy
TTITLE12=13 - Interlude - Telephone call - Don't hang up
TTITLE13=14 - Every little bit hurts
TTITLE14=14 - Interlude - Ringtone-voicemail - I'm not in right now
TTITLE15=16 - Betcha never
TTITLE16=17 - All is not gone
TTITLE17=18 - 365 days of the year
TTITLE18=19 - The greatest love we'll never know
TTITLE19=20 - Kiss my kisses goodbye
TTITLE20=21 - Prelude - I'm sorry - it's over
TTITLE21=22 - It's over
TTITLE22=DATA
EXTD=
EXTT0=
EXTT1=
EXTT2=
EXTT3=
EXTT4=
EXTT5=
EXTT6=
EXTT7=
EXTT8=
EXTT9=
EXTT10=
EXTT11=
EXTT12=
EXTT13=
EXTT14=
EXTT15=
EXTT16=
EXTT17=
EXTT18=
EXTT19=
EXTT20=
EXTT21=
EXTT22=
PLAYORDER=
